<svg xmlns="http://www.w3.org/2000/svg" xmlns:xlink="http://www.w3.org/1999/xlink" version="1.1" x="0px" y="0px" viewBox="0 0 50 62.5" style="enable-background:new 0 0 50 50;" xml:space="preserve"><style type="text/css">
	.st0{fill:none;stroke:#000000;stroke-width:2;stroke-miterlimit:10;}
	.st1{fill:none;stroke:#000000;stroke-width:2;stroke-miterlimit:10;stroke-dasharray:2,2;}
	.st2{fill:none;stroke:#000000;stroke-width:2;stroke-miterlimit:10;stroke-dasharray:2,2.3;}
	.st3{fill:none;stroke:#000000;stroke-width:2;stroke-miterlimit:10;stroke-dasharray:2,3.3;}
	.st4{fill:none;stroke:#000000;stroke-width:2;stroke-miterlimit:10;stroke-dasharray:2,2.5;}
	.st5{fill:none;stroke:#000000;stroke-width:2;stroke-miterlimit:10;stroke-dasharray:2,3.2;}
	.st6{fill:none;stroke:#000000;stroke-width:2;stroke-miterlimit:10;stroke-dasharray:2,1.8;}
	.st7{fill:none;stroke:#000000;stroke-width:2;stroke-miterlimit:10;stroke-dasharray:2,2.2;}
</style><g><path class="st0" d="M46.7,42.2H3.3l0,0c4.3-3.5,8-9.6,8-15.3v-7.2C11.4,12.1,17.5,6,25,6c0,0,0,0,0,0h0h0c0,0,0,0,0,0   c7.5,0,13.6,6.1,13.6,13.6v7.2C38.6,32.5,42.4,38.6,46.7,42.2L46.7,42.2z"/><path class="st0" d="M31.8,42.2c0,3.8-3.1,6.8-6.8,6.8s-6.8-3.1-6.8-6.8"/><path class="st0" d="M21.3,6.5V4.7C21.3,2.6,23,1,25,1h0c2,0,3.7,1.6,3.7,3.7v1.8"/><line class="st0" x1="4.5" y1="48.3" x2="44" y2="8.7"/></g><text x="0" y="65" fill="#000000" font-size="5px" font-weight="bold" font-family="'Helvetica Neue', Helvetica, Arial-Unicode, Arial, Sans-serif">Created by Dinosoft Labs</text><text x="0" y="70" fill="#000000" font-size="5px" font-weight="bold" font-family="'Helvetica Neue', Helvetica, Arial-Unicode, Arial, Sans-serif">from the Noun Project</text></svg>