<?xml version="1.0" encoding="UTF-8" standalone="no"?>
<!-- Created with Inkscape (http://www.inkscape.org/) -->
<svg xmlns:dc="http://purl.org/dc/elements/1.1/" xmlns:cc="http://creativecommons.org/ns#" xmlns:rdf="http://www.w3.org/1999/02/22-rdf-syntax-ns#" xmlns:svg="http://www.w3.org/2000/svg" xmlns="http://www.w3.org/2000/svg" xmlns:sodipodi="http://sodipodi.sourceforge.net/DTD/sodipodi-0.dtd" xmlns:inkscape="http://www.inkscape.org/namespaces/inkscape" width="570" height="220" id="svg3730" version="1.1" inkscape:version="0.47 r22583" sodipodi:docname="Neues Dokument 4">
  <defs id="defs3732">
    <inkscape:perspective sodipodi:type="inkscape:persp3d" inkscape:vp_x="0 : 526.18109 : 1" inkscape:vp_y="0 : 1000 : 0" inkscape:vp_z="744.09448 : 526.18109 : 1" inkscape:persp3d-origin="372.04724 : 350.78739 : 1" id="perspective3738"/>
    <inkscape:perspective id="perspective3713" inkscape:persp3d-origin="0.5 : 0.33333333 : 1" inkscape:vp_z="1 : 0.5 : 1" inkscape:vp_y="0 : 1000 : 0" inkscape:vp_x="0 : 0.5 : 1" sodipodi:type="inkscape:persp3d"/>
  </defs>
  <sodipodi:namedview id="base" pagecolor="#ffffff" bordercolor="#666666" borderopacity="1.0" inkscape:pageopacity="0.0" inkscape:pageshadow="2" inkscape:zoom="1.4638351" inkscape:cx="285" inkscape:cy="110" inkscape:document-units="px" inkscape:current-layer="layer1" showgrid="false" inkscape:window-width="1280" inkscape:window-height="1005" inkscape:window-x="-4" inkscape:window-y="-4" inkscape:window-maximized="1"/>
  <metadata id="metadata3735">
    <rdf:RDF>
      <cc:Work rdf:about="">
        <dc:format>image/svg+xml</dc:format>
        <dc:type rdf:resource="http://purl.org/dc/dcmitype/StillImage"/>
        <dc:title/>
      </cc:Work>
    </rdf:RDF>
  </metadata>
  <g inkscape:label="Ebene 1" inkscape:groupmode="layer" id="layer1" transform="translate(43.22928,-382.06869)">
    <g transform="matrix(0.55487813,0,0,0.55487813,727.78246,-528.61522)" id="g3691">
      <g transform="translate(-1454.0032,1285.7358)" id="g3672">
        <path style="fill:#8c9da7;fill-opacity:1;stroke:none" d="m 623.4375,308.90625 c -40.97928,0 -65.97352,16.78968 -80.84375,33.9375 l -1.25,0 0,-26.8125 -52.46875,0 0,274.90625 58.75,0 0,-159.46875 0,-3.71875 c 0.36397,-14.46491 5.68656,-67.0625 63.96875,-67.0625 57.30905,0 70.34375,39.97967 70.34375,71.1875 l 0,107.3125 c 0,14.25781 3.77205,28.13541 15.40625,39.90625 14.42913,14.59859 43.375,11.8125 43.375,11.8125 l 0,-157.96875 c 0,-53.94747 -33.53447,-124.03125 -117.28125,-124.03125 z" transform="translate(0,152.36224)" id="rect2833"/>
        <path style="fill:#8c9da7;fill-opacity:1;stroke:none" d="m 913.34375,312.71875 c -77.7177,0 -140.71875,63.00105 -140.71875,140.71875 0,77.7177 63.00105,140.71875 140.71875,140.71875 31.6539,0 60.86606,-10.45386 84.375,-28.09375 2.59645,5.15177 6.68145,11.063 13.21875,16.6875 16.3569,14.073 37.0313,8.15625 37.0313,8.15625 l 0,-274.84375 -52.62505,0 0,23.03125 c -23.08949,-16.58539 -51.40095,-26.375 -82,-26.375 z m 1.15625,52.25 c 49.07377,0 88.8438,39.76998 88.8438,88.84375 0,49.07377 -39.77003,88.84375 -88.8438,88.84375 -49.07377,0 -88.875,-39.76998 -88.875,-88.84375 0,-49.07377 39.80123,-88.84375 88.875,-88.84375 z" transform="translate(0,152.36224)" id="path2858" sodipodi:nodetypes="csscsccccccsssc"/>
        <path style="fill:#8c9da7;fill-opacity:1;stroke:none" d="m 456.74457,468.41489 -68.33491,0 -207.90847,274.85837 71.35524,0 204.88814,-274.85837 z" id="path3648" sodipodi:nodetypes="ccccc"/>
        <g id="g3666" style="fill:#f4793b;fill-opacity:1" transform="translate(367.19122,-213.65852)">
          <path transform="matrix(1.0485437,0,0,1.0485437,-7.6630389,153.27668)" d="m -114.33557,517.21851 c 0,7.66983 -6.21762,13.88745 -13.88745,13.88745 -7.66983,0 -13.88746,-6.21762 -13.88746,-13.88745 0,-7.66983 6.21763,-13.88746 13.88746,-13.88746 7.66983,0 13.88745,6.21763 13.88745,13.88746 z" sodipodi:ry="13.887457" sodipodi:rx="13.887457" sodipodi:cy="517.21851" sodipodi:cx="-128.22302" id="path3652" style="fill:#f4793b;fill-opacity:1;fill-rule:nonzero;stroke:none" sodipodi:type="arc"/>
          <path sodipodi:type="arc" style="fill:#f4793b;fill-opacity:1;fill-rule:nonzero;stroke:none" id="path3654" sodipodi:cx="-128.22302" sodipodi:cy="517.21851" sodipodi:rx="13.887457" sodipodi:ry="13.887457" d="m -114.33557,517.21851 c 0,7.66983 -6.21762,13.88745 -13.88745,13.88745 -7.66983,0 -13.88746,-6.21762 -13.88746,-13.88745 0,-7.66983 6.21763,-13.88746 13.88746,-13.88746 7.66983,0 13.88745,6.21763 13.88745,13.88746 z" transform="matrix(1.2891259,0,0,1.2891259,58.405347,62.65572)"/>
          <path id="path3656" transform="translate(0,152.36224)" d="M -68.46875,596.625 C -80.366665,596.625 -90,606.28958 -90,618.1875 c 0,4.57472 1.443358,8.79283 3.875,12.28125 l -0.03125,0 c 0,0 37.084152,55.40298 54.5,83.8125 15.953798,26.02456 24.6776696,53.81487 45.78125,79.3125 5.268348,6.36529 13.372185,10.41969 21.34375,12.59375 12.631866,3.44505 39.28125,0 39.28125,0 0,0 -22.07759,-56.80237 -56.0625,-110.21875 -22.6571853,-35.61183 -60.788831,-80.19138 -69.96875,-90.78125 -0.103183,-0.11903 -0.06045,-0.0771 -0.15625,-0.1875 -0.558941,-0.72147 -1.136874,-1.41812 -1.78125,-2.0625 -0.03135,-0.0313 -0.06221,-0.0626 -0.09375,-0.0937 -3.890849,-3.8434 -9.25513,-6.21875 -15.15625,-6.21875 z" style="fill:#f4793b;fill-opacity:1;fill-rule:nonzero;stroke:none"/>
          <path sodipodi:nodetypes="cscsssscssc" id="path3658" transform="translate(0,152.36224)" d="m -299.0625,422.6875 c 0,0 44.62849,35.47395 65.00102,52.88409 20.90064,17.86146 45.72329,41.42193 50.65523,46.39716 0.49838,0.63418 1.06572,1.20561 1.6875,1.71875 0.0744,0.0614 0.14275,0.128 0.21875,0.1875 1.89993,1.48744 4.30626,2.375 6.90625,2.375 6.18054,0 11.1875,-5.00696 11.1875,-11.1875 0,-3.70932 -1.81452,-6.99507 -4.59375,-9.03125 0,0 -0.49584,-0.31933 -0.53125,-0.34375 -1.52504,-1.05159 -28.09817,-19.7274 -51.77318,-34.98034 -25.67213,-16.53961 -78.75807,-48.01966 -78.75807,-48.01966 z" style="fill:#f4793b;fill-opacity:1;fill-rule:nonzero;stroke:none"/>
        </g>
      </g>
      <g id="text3682" style="font-size:40px;font-style:normal;font-variant:normal;font-weight:normal;font-stretch:normal;text-align:center;line-height:100%;writing-mode:lr-tb;text-anchor:middle;fill:#8c9da7;fill-opacity:1;stroke:#8c9da7;stroke-width:1.04762983;stroke-opacity:1;font-family:Helvetica Neue;-inkscape-font-specification:Helvetica Neue" transform="matrix(0.27805661,0,0,0.26868424,-265.84514,1621.468)">
        <path id="path3687" style="fill:#8c9da7;fill-opacity:1;stroke:#8c9da7;stroke-width:1.04762983;stroke-opacity:1" d="m -412.86597,1489.3857 0,25.3601 3.80005,0 0,-25.3601 9.52027,0 0,-3.1994 -22.83936,0 0,3.1994 z"/>
        <path id="path3689" style="fill:#8c9da7;fill-opacity:1;stroke:#8c9da7;stroke-width:1.04762983;stroke-opacity:1" d="m -396.29736,1486.1863 0,28.5595 3.60107,0 0,-23.7597 0.0793,0 8.91967,23.7597 3.24097,0 8.91968,-23.7597 0.0793,0 0,23.7597 3.59986,0 0,-28.5595 -5.19898,0 -9.04052,23.999 -9.00025,-23.999 z"/>
      </g>
    </g>
  </g>
</svg>